<svg width="128" height="128" viewBox="0 0 128 128" fill="none" xmlns="http://www.w3.org/2000/svg">
<rect width="128" height="128" rx="24" fill="#2D4A22"/>
<path d="M94 79.4585C94 82.9783 92.9801 86.287 90.9402 89.3844C88.982 92.4819 86.0446 95.0865 82.1282 97.1984C78.2933 99.3103 73.7241 100.577 68.4205 101V109.553H60.4652V101C52.7954 100.366 46.5944 98.2896 41.862 94.7698C37.1296 91.2499 34.7634 86.6037 34.7634 80.8312H49.6949C49.9397 83.5767 50.9596 85.8646 52.7547 87.6949C54.5497 89.4548 57.1199 90.5812 60.4652 91.0739V67.843C54.9985 66.6463 50.5516 65.4495 47.1247 64.2528C43.6978 62.9856 40.7605 61.0145 38.3127 58.3395C35.9465 55.6644 34.7634 52.0038 34.7634 47.3576C34.7634 41.5147 37.1296 36.6925 41.862 32.8911C46.5944 29.0192 52.7954 26.7665 60.4652 26.133V17.5798H68.4205V26.133C75.6007 26.6961 81.353 28.6673 85.6775 32.0463C90.0835 35.3549 92.5721 39.9307 93.1432 45.7737H78.2117C77.9669 43.5914 76.9878 41.6554 75.2744 39.9659C73.5609 38.206 71.2763 37.0093 68.4205 36.3757V59.1842C73.8873 60.3106 78.3341 61.5073 81.761 62.7745C85.1879 63.9712 88.0845 65.9071 90.4507 68.5822C92.8169 71.1869 94 74.8123 94 79.4585ZM48.9606 46.724C48.9606 49.6103 49.9397 51.863 51.8979 53.4821C53.9377 55.1012 56.7935 56.4036 60.4652 57.3891V36.0589C56.9567 36.4109 54.1417 37.502 52.0203 39.3324C49.9805 41.1627 48.9606 43.6266 48.9606 46.724ZM68.4205 91.0739C72.0106 90.5812 74.8256 89.3492 76.8654 87.3781C78.9052 85.3366 79.9252 82.9079 79.9252 80.0921C79.9252 77.2762 78.9052 75.0939 76.8654 73.5452C74.9072 71.926 72.0922 70.6237 68.4205 69.6381V91.0739Z" fill="#49AA26"/>
</svg>
