<svg width="100" height="100" viewBox="0 0 100 100" fill="none" xmlns="http://www.w3.org/2000/svg">
<rect width="100" height="100" fill="url(#paint0_linear_46713_61)"/>
<path d="M70 60.3858C70 62.7968 69.2941 65.0631 67.8822 67.1848C66.5269 69.3065 64.4938 71.0907 61.7831 72.5373C59.1288 73.9839 55.9663 74.8519 52.2955 75.1412V81H46.7893V75.1412C41.4807 74.7072 37.1887 73.2847 33.9132 70.8737C30.6377 68.4627 29 65.2801 29 61.3261H39.3347C39.5041 63.2067 40.2101 64.7738 41.4525 66.0276C42.6949 67.2331 44.4738 68.0046 46.7893 68.3421V52.4294C43.0055 51.6096 39.9277 50.7899 37.5558 49.9702C35.1839 49.1022 33.1508 47.752 31.4566 45.9196C29.8189 44.0873 29 41.5798 29 38.3972C29 34.3949 30.6377 31.0918 33.9132 28.4879C37.1887 25.8358 41.4807 24.2928 46.7893 23.8588V18H52.2955V23.8588C57.2652 24.2445 61.2466 25.5947 64.2397 27.9093C67.2893 30.1757 69.0117 33.31 69.407 37.3123H59.0723C58.9029 35.8175 58.2252 34.4914 57.0393 33.3341C55.8533 32.1286 54.272 31.3088 52.2955 30.8749V46.4983C56.0792 47.2698 59.157 48.0896 61.5289 48.9575C63.9008 49.7773 65.9056 51.1033 67.5434 52.9357C69.1811 54.7199 70 57.2032 70 60.3858ZM38.8264 37.9633C38.8264 39.9403 39.5041 41.4834 40.8595 42.5924C42.2713 43.7015 44.2479 44.5936 46.7893 45.2687V30.6579C44.3609 30.899 42.4125 31.6464 40.9442 32.9001C39.5324 34.1538 38.8264 35.8416 38.8264 37.9633ZM52.2955 68.3421C54.7803 68.0046 56.7286 67.1607 58.1405 65.8106C59.5523 64.4122 60.2583 62.7486 60.2583 60.8198C60.2583 58.8909 59.5523 57.3961 58.1405 56.3352C56.7851 55.2262 54.8368 54.3341 52.2955 53.659V68.3421Z" fill="#F0F2F5"/>
<defs>
<linearGradient id="paint0_linear_46713_61" x1="0" y1="0" x2="100" y2="100" gradientUnits="userSpaceOnUse">
<stop stop-color="#49AA26"/>
<stop offset="1" stop-color="#1D440F"/>
</linearGradient>
</defs>
</svg>
