<svg width="178" height="23" viewBox="0 0 178 23" fill="none" xmlns="http://www.w3.org/2000/svg">
<path d="M13 16.4558C13 17.2212 12.7762 17.9407 12.3285 18.6142C11.8988 19.2878 11.2541 19.8542 10.3946 20.3134C9.55303 20.7727 8.55027 21.0482 7.38636 21.1401V23H5.6405V21.1401C3.9573 21.0023 2.59642 20.5507 1.55785 19.7853C0.519284 19.0199 0 18.0096 0 16.7543H3.27686C3.33058 17.3513 3.55441 17.8488 3.94835 18.2468C4.34229 18.6295 4.90634 18.8745 5.6405 18.9816V13.93C4.44077 13.6697 3.46488 13.4095 2.71281 13.1493C1.96074 12.8737 1.31612 12.4451 0.778926 11.8634C0.259642 11.2817 0 10.4856 0 9.47532C0 8.20475 0.519284 7.15614 1.55785 6.32951C2.59642 5.48756 3.9573 4.9977 5.6405 4.85993V3H7.38636V4.85993C8.96212 4.9824 10.2245 5.41102 11.1736 6.14581C12.1405 6.86529 12.6866 7.86031 12.812 9.13088H9.53512C9.48141 8.65633 9.26653 8.23536 8.8905 7.86797C8.51446 7.48527 8.01309 7.22503 7.38636 7.08726V12.0471C8.58609 12.292 9.56198 12.5522 10.314 12.8278C11.0661 13.088 11.7018 13.509 12.2211 14.0907C12.7404 14.6571 13 15.4455 13 16.4558ZM3.1157 9.33754C3.1157 9.96517 3.33058 10.455 3.76033 10.8071C4.20799 11.1592 4.83471 11.4424 5.6405 11.6567V7.01837C4.87052 7.09491 4.25276 7.33219 3.78719 7.7302C3.33953 8.12821 3.1157 8.66399 3.1157 9.33754ZM7.38636 18.9816C8.17424 18.8745 8.79201 18.6066 9.23967 18.178C9.68733 17.734 9.91116 17.2059 9.91116 16.5936C9.91116 15.9812 9.68733 15.5067 9.23967 15.1699C8.80992 14.8178 8.19215 14.5346 7.38636 14.3203V18.9816Z" fill="#49AA26"/>
<path d="M21 13.9155C21 12.3568 21.3054 10.9765 21.9161 9.77465C22.5447 8.57277 23.3889 7.64319 24.4487 6.98591C25.5264 6.30986 26.7208 5.97183 28.032 5.97183C29.002 5.97183 29.954 6.19718 30.888 6.64789C31.8399 7.07981 32.5943 7.66197 33.1512 8.39437V0.901409H36.2496V21.7465H33.1512V19.4085C32.6482 20.1596 31.9477 20.7793 31.0496 21.2676C30.1695 21.7559 29.1547 22 28.0051 22C26.7119 22 25.5264 21.662 24.4487 20.9859C23.3889 20.2911 22.5447 19.3333 21.9161 18.1127C21.3054 16.8732 21 15.4742 21 13.9155ZM33.1512 13.9718C33.1512 12.9014 32.9356 11.9718 32.5045 11.1831C32.0914 10.3944 31.5436 9.79343 30.861 9.38028C30.1785 8.96714 29.442 8.76056 28.6517 8.76056C27.8614 8.76056 27.125 8.96714 26.4424 9.38028C25.7599 9.77465 25.2031 10.3662 24.772 11.1549C24.3589 11.9249 24.1523 12.8451 24.1523 13.9155C24.1523 14.9859 24.3589 15.9249 24.772 16.7324C25.2031 17.5399 25.7599 18.1596 26.4424 18.5915C27.1429 19.0047 27.8794 19.2113 28.6517 19.2113C29.442 19.2113 30.1785 19.0047 30.861 18.5915C31.5436 18.1784 32.0914 17.5775 32.5045 16.7887C32.9356 15.9812 33.1512 15.0423 33.1512 13.9718Z" fill="white"/>
<path d="M53.8899 13.6056C53.8899 14.1878 53.854 14.7136 53.7821 15.1831H42.4392C42.529 16.4225 42.9691 17.4178 43.7594 18.169C44.5498 18.9202 45.5197 19.2958 46.6692 19.2958C48.3217 19.2958 49.4892 18.5728 50.1718 17.1268H53.4857C53.0367 18.554 52.2194 19.7277 51.034 20.6479C49.8664 21.5493 48.4115 22 46.6692 22C45.2503 22 43.975 21.6714 42.8434 21.0141C41.7297 20.338 40.8496 19.3991 40.203 18.1972C39.5743 16.9765 39.26 15.5681 39.26 13.9718C39.26 12.3756 39.5653 10.9765 40.1761 9.77465C40.8047 8.55399 41.6759 7.61502 42.7895 6.95775C43.9211 6.30047 45.2143 5.97183 46.6692 5.97183C48.0703 5.97183 49.3186 6.29108 50.4143 6.92958C51.51 7.56807 52.3631 8.46948 52.9738 9.6338C53.5845 10.7793 53.8899 12.1033 53.8899 13.6056ZM50.6837 12.5915C50.6657 11.4085 50.2616 10.4601 49.4713 9.74648C48.681 9.03286 47.702 8.67606 46.5345 8.67606C45.4748 8.67606 44.5677 9.03286 43.8133 9.74648C43.0589 10.4413 42.6099 11.3897 42.4662 12.5915H50.6837Z" fill="white"/>
<path d="M62.6513 18.8732L66.8544 6.22535H70.1144L64.4565 21.7465H60.7923L55.1613 6.22535H58.4483L62.6513 18.8732Z" fill="white"/>
<path d="M85.1588 8.84507H82.4106V21.7465H79.3122V8.84507H77.561V6.22535H79.3122V5.12676C79.3122 3.34272 79.7613 2.04695 80.6594 1.23944C81.5754 0.413145 83.0034 0 84.9432 0V2.67606C84.0092 2.67606 83.3536 2.86385 82.9764 3.23944C82.5992 3.59624 82.4106 4.22535 82.4106 5.12676V6.22535H85.1588V8.84507Z" fill="white"/>
<path d="M89.4435 4.16901C88.8867 4.16901 88.4197 3.97183 88.0425 3.57746C87.6653 3.1831 87.4767 2.69484 87.4767 2.11268C87.4767 1.53052 87.6653 1.04225 88.0425 0.647887C88.4197 0.253521 88.8867 0.0563373 89.4435 0.0563373C89.9824 0.0563373 90.4404 0.253521 90.8176 0.647887C91.1948 1.04225 91.3834 1.53052 91.3834 2.11268C91.3834 2.69484 91.1948 3.1831 90.8176 3.57746C90.4404 3.97183 89.9824 4.16901 89.4435 4.16901ZM90.9523 6.22535V21.7465H87.8809V6.22535H90.9523Z" fill="white"/>
<path d="M102.475 5.97183C103.642 5.97183 104.684 6.22535 105.6 6.73239C106.534 7.23944 107.262 7.99061 107.783 8.98592C108.304 9.98122 108.564 11.1831 108.564 12.5915V21.7465H105.519V13.0704C105.519 11.6807 105.187 10.6197 104.523 9.88732C103.858 9.13615 102.951 8.76056 101.801 8.76056C100.652 8.76056 99.7358 9.13615 99.0532 9.88732C98.3886 10.6197 98.0564 11.6807 98.0564 13.0704V21.7465H94.9849V6.22535H98.0564V8C98.5593 7.3615 99.1969 6.86385 99.9693 6.50704C100.76 6.15023 101.595 5.97183 102.475 5.97183Z" fill="white"/>
<path d="M111.458 13.9155C111.458 12.3568 111.763 10.9765 112.374 9.77465C113.003 8.57277 113.847 7.64319 114.907 6.98591C115.984 6.30986 117.17 5.97183 118.463 5.97183C119.631 5.97183 120.646 6.21596 121.508 6.70422C122.388 7.17371 123.088 7.76526 123.609 8.47887V6.22535H126.708V21.7465H123.609V19.4366C123.088 20.169 122.379 20.7793 121.481 21.2676C120.583 21.7559 119.559 22 118.409 22C117.134 22 115.966 21.662 114.907 20.9859C113.847 20.2911 113.003 19.3333 112.374 18.1127C111.763 16.8732 111.458 15.4742 111.458 13.9155ZM123.609 13.9718C123.609 12.9014 123.394 11.9718 122.963 11.1831C122.549 10.3944 122.002 9.79343 121.319 9.38028C120.637 8.96714 119.9 8.76056 119.11 8.76056C118.319 8.76056 117.583 8.96714 116.9 9.38028C116.218 9.77465 115.661 10.3662 115.23 11.1549C114.817 11.9249 114.61 12.8451 114.61 13.9155C114.61 14.9859 114.817 15.9249 115.23 16.7324C115.661 17.5399 116.218 18.1596 116.9 18.5915C117.601 19.0047 118.337 19.2113 119.11 19.2113C119.9 19.2113 120.637 19.0047 121.319 18.5915C122.002 18.1784 122.549 17.5775 122.963 16.7887C123.394 15.9812 123.609 15.0423 123.609 13.9718Z" fill="white"/>
<path d="M138.232 5.97183C139.399 5.97183 140.441 6.22535 141.357 6.73239C142.291 7.23944 143.019 7.99061 143.54 8.98592C144.061 9.98122 144.321 11.1831 144.321 12.5915V21.7465H141.276V13.0704C141.276 11.6807 140.944 10.6197 140.28 9.88732C139.615 9.13615 138.708 8.76056 137.558 8.76056C136.409 8.76056 135.493 9.13615 134.81 9.88732C134.146 10.6197 133.813 11.6807 133.813 13.0704V21.7465H130.742V6.22535H133.813V8C134.316 7.3615 134.954 6.86385 135.726 6.50704C136.517 6.15023 137.352 5.97183 138.232 5.97183Z" fill="white"/>
<path d="M147.215 13.9718C147.215 12.3756 147.52 10.9765 148.131 9.77465C148.76 8.55399 149.622 7.61502 150.718 6.95775C151.813 6.30047 153.071 5.97183 154.49 5.97183C156.286 5.97183 157.768 6.42253 158.935 7.32394C160.121 8.20657 160.92 9.47418 161.333 11.1268H158.019C157.75 10.3568 157.319 9.75587 156.726 9.32394C156.133 8.89202 155.388 8.67606 154.49 8.67606C153.232 8.67606 152.226 9.14554 151.472 10.0845C150.736 11.0047 150.367 12.3005 150.367 13.9718C150.367 15.6432 150.736 16.9484 151.472 17.8873C152.226 18.8263 153.232 19.2958 154.49 19.2958C156.268 19.2958 157.444 18.4789 158.019 16.8451H161.333C160.902 18.4225 160.094 19.6807 158.908 20.6197C157.723 21.5399 156.25 22 154.49 22C153.071 22 151.813 21.6714 150.718 21.0141C149.622 20.338 148.76 19.3991 148.131 18.1972C147.52 16.9765 147.215 15.5681 147.215 13.9718Z" fill="white"/>
<path d="M178 13.6056C178 14.1878 177.964 14.7136 177.892 15.1831H166.549C166.639 16.4225 167.079 17.4178 167.87 18.169C168.66 18.9202 169.63 19.2958 170.779 19.2958C172.432 19.2958 173.599 18.5728 174.282 17.1268H177.596C177.147 18.554 176.33 19.7277 175.144 20.6479C173.977 21.5493 172.522 22 170.779 22C169.36 22 168.085 21.6714 166.953 21.0141C165.84 20.338 164.96 19.3991 164.313 18.1972C163.684 16.9765 163.37 15.5681 163.37 13.9718C163.37 12.3756 163.675 10.9765 164.286 9.77465C164.915 8.55399 165.786 7.61502 166.9 6.95775C168.031 6.30047 169.324 5.97183 170.779 5.97183C172.18 5.97183 173.429 6.29108 174.524 6.92958C175.62 7.56807 176.473 8.46948 177.084 9.6338C177.695 10.7793 178 12.1033 178 13.6056ZM174.794 12.5915C174.776 11.4085 174.372 10.4601 173.581 9.74648C172.791 9.03286 171.812 8.67606 170.645 8.67606C169.585 8.67606 168.678 9.03286 167.923 9.74648C167.169 10.4413 166.72 11.3897 166.576 12.5915H174.794Z" fill="white"/>
<path d="M73.6755 21.9437C73.1187 21.9437 72.6517 21.7465 72.2745 21.3521C71.8973 20.9577 71.7087 20.4695 71.7087 19.8873C71.7087 19.3052 71.8973 18.8169 72.2745 18.4225C72.6517 18.0282 73.1187 17.831 73.6755 17.831C74.2143 17.831 74.6724 18.0282 75.0496 18.4225C75.4268 18.8169 75.6154 19.3052 75.6154 19.8873C75.6154 20.4695 75.4268 20.9577 75.0496 21.3521C74.6724 21.7465 74.2143 21.9437 73.6755 21.9437Z" fill="#49AA26"/>
</svg>
